# xmcd
#
# Track frame offsets:
#	150
#	14272
#	28197
#	42522
#	57855
#	73392
#	88710
#	103460
#	118385
#	131962
#	148367
#	164122
#
# Disc length: 2438
#
# Revision: 1
# Processed by: cddbd v1.5.1PL0 Copyright (c) Steve Scherf et al.
# Submitted via: CDex 1.51
# Normalized: r0:TDELIM( - )
#
DISCID=ca09840c
DTITLE=Jazz and Tzaz - 139 - Jazz in Comics
DYEAR=2004
DGENRE=Jazz
TTITLE0=Dizzy Gillespie - Manteca
TTITLE1=Charlie Parker - Parker's Mood
TTITLE2=Nat King Cole - Unforgettable
TTITLE3=Django Reinhardt - Nuages
TTITLE4=Charlie Parker - Bloomdido
TTITLE5=Billie Holiday - Don't Explain
TTITLE6=Ella Fitzgerald - How High the Moon
TTITLE7=Sidney Bechet - Petite Fleur
TTITLE8=Dizzy Gillespie - Algo Bueno (Woody'n'You)
TTITLE9=Erroll Garner - Oh! Lady Be Good
TTITLE10=Louis Armstrong - La Vie En Rose
TTITLE11=Lester Young - Mean to Me
EXTD=YEAR: 2004
EXTT0=
EXTT1=
EXTT2=
EXTT3=
EXTT4=
EXTT5=
EXTT6=
EXTT7=
EXTT8=
EXTT9=
EXTT10=
EXTT11=
PLAYORDER=
